<svg xmlns="http://www.w3.org/2000/svg" viewBox="0 0 300 300" role="img" aria-labelledby="title">
  <title id="title">Traditional red rose illustration</title>
  <defs>
    <linearGradient id="petal" x1="0" x2="1" y1="0" y2="1">
      <stop offset="0" stop-color="#ef3a3f"/>
      <stop offset="1" stop-color="#a80f19"/>
    </linearGradient>
    <linearGradient id="leaf" x1="0" x2="1">
      <stop offset="0" stop-color="#5c8a52"/>
      <stop offset="1" stop-color="#24472b"/>
    </linearGradient>
  </defs>

  <g stroke="#12100e" stroke-width="10" stroke-linecap="round" stroke-linejoin="round">
    <path fill="url(#leaf)" d="M63 174c-43-8-55 17-51 43 36 4 68-6 86-33-8-4-19-8-35-10Z"/>
    <path fill="none" d="M26 208c20-10 40-18 64-25"/>
    <path fill="url(#leaf)" d="M238 174c43-8 55 17 51 43-36 4-68-6-86-33 8-4 19-8 35-10Z"/>
    <path fill="none" d="M274 208c-20-10-40-18-64-25"/>

    <path fill="url(#petal)" d="M147 26c-31-20-62-1-65 29-2 17 6 34 19 48-35-7-65 15-65 49 0 25 15 45 40 55-12 28 6 60 37 69 17 5 32 3 46-7 14 10 29 12 46 7 31-9 49-41 37-69 25-10 40-30 40-55 0-34-30-56-65-49 13-14 21-31 19-48-3-30-34-49-65-29-8-11-18-18-24-18s-16 7-24 18Z"/>

    <path fill="#d8242d" d="M96 87c26-22 51-16 63 6 12-22 37-28 63-6-2 34-20 55-63 75-43-20-61-41-63-75Z"/>
    <path fill="#b4111b" d="M111 116c16-18 32-16 48 4 16-20 32-22 48-4-3 28-21 45-48 60-27-15-45-32-48-60Z"/>
    <path fill="#e2343a" d="M131 130c10-11 19-9 28 5 9-14 18-16 28-5-2 20-11 31-28 42-17-11-26-22-28-42Z"/>

    <path fill="none" d="M83 69c8 20 23 33 45 41"/>
    <path fill="none" d="M217 69c-8 20-23 33-45 41"/>
    <path fill="none" d="M58 139c17 5 31 17 43 34"/>
    <path fill="none" d="M242 139c-17 5-31 17-43 34"/>
    <path fill="none" d="M89 213c19-13 37-22 61-29"/>
    <path fill="none" d="M211 213c-19-13-37-22-61-29"/>
  </g>

  <g fill="#e3ad3b" stroke="#12100e" stroke-width="7">
    <circle cx="150" cy="279" r="8"/>
    <path d="M150 0l9 24-9 18-9-18Z"/>
    <path d="M32 82l24 7 8 18-19 4Z"/>
    <path d="M268 82l-24 7-8 18 19 4Z"/>
  </g>
</svg>
